<?xml version="1.0" encoding="utf-8"?>
<!-- Generator: Adobe Illustrator 23.0.1, SVG Export Plug-In . SVG Version: 6.00 Build 0)  -->
<svg version="1.1" id="Capa_1" xmlns="http://www.w3.org/2000/svg" xmlns:xlink="http://www.w3.org/1999/xlink" x="0px" y="0px"
	 viewBox="0 0 50 50" style="enable-background:new 0 0 50 50;" xml:space="preserve">
<style type="text/css">
	.st0{fill:#fff;}
</style>
<g>
	<g>
		<g>
			<path class="st0" d="M44.7,29.4H5.3c-2.9,0-5.2,2.3-5.2,5.2v4.1c0,2.9,2.3,5.2,5.2,5.2h39.3c2.9,0,5.2-2.3,5.2-5.2v-4.1
				C49.8,31.7,47.5,29.4,44.7,29.4z M47.8,38.7c0,1.7-1.4,3.1-3.1,3.1H5.3c-1.7,0-3.1-1.4-3.1-3.1v-4.1c0-1.7,1.4-3.1,3.1-3.1h39.3
				c1.7,0,3.1,1.4,3.1,3.1L47.8,38.7L47.8,38.7z"/>
		</g>
	</g>
	<g>
		<g>
			<path class="st0" d="M36.4,14.9c-0.6,0-1,0.5-1,1v14.5c0,0.6,0.5,1,1,1s1-0.5,1-1V15.9C37.4,15.4,37,14.9,36.4,14.9z"/>
		</g>
	</g>
	<g>
		<g>
			<circle class="st0" cx="7.4" cy="36.6" r="1"/>
		</g>
	</g>
	<g>
		<g>
			<circle class="st0" cx="13.6" cy="36.6" r="1"/>
		</g>
	</g>
	<g>
		<g>
			<circle class="st0" cx="19.8" cy="36.6" r="1"/>
		</g>
	</g>
	<g>
		<g>
			<circle class="st0" cx="26" cy="36.6" r="1"/>
		</g>
	</g>
	<g>
		<g>
			<path class="st0" d="M42.6,35.6H32.2c-0.6,0-1,0.5-1,1c0,0.6,0.5,1,1,1h10.3c0.6,0,1-0.5,1-1C43.6,36.1,43.2,35.6,42.6,35.6z"/>
		</g>
	</g>
	<g>
		<g>
			<path class="st0" d="M33.3,15.9c0-0.8,0.3-1.6,0.9-2.2c0.4-0.4,0.4-1.1,0-1.5c-0.4-0.4-1.1-0.4-1.5,0c-1,1-1.5,2.3-1.5,3.7
				c0,1.4,0.5,2.7,1.5,3.7c0.2,0.2,0.5,0.3,0.7,0.3c0.3,0,0.5-0.1,0.7-0.3c0.4-0.4,0.4-1.1,0-1.5C33.6,17.5,33.3,16.8,33.3,15.9z"/>
		</g>
	</g>
	<g>
		<g>
			<path class="st0" d="M40,12.3c-0.4-0.4-1.1-0.4-1.5,0c-0.4,0.4-0.4,1.1,0,1.5c0.6,0.6,0.9,1.4,0.9,2.2c0,0.8-0.3,1.6-0.9,2.2
				c-0.4,0.4-0.4,1.1,0,1.5c0.2,0.2,0.5,0.3,0.7,0.3s0.5-0.1,0.7-0.3c1-1,1.5-2.3,1.5-3.7C41.6,14.6,41,13.3,40,12.3z"/>
		</g>
	</g>
	<g>
		<g>
			<path class="st0" d="M31.3,10.8c0.4-0.4,0.4-1.1,0-1.5c-0.4-0.4-1.1-0.4-1.5,0c-3.6,3.6-3.6,9.5,0,13.2c0.2,0.2,0.5,0.3,0.7,0.3
				s0.5-0.1,0.7-0.3c0.4-0.4,0.4-1.1,0-1.5C28.4,18.2,28.4,13.6,31.3,10.8z"/>
		</g>
	</g>
	<g>
		<g>
			<path class="st0" d="M43,9.4c-0.4-0.4-1.1-0.4-1.5,0c-0.4,0.4-0.4,1.1,0,1.5c2.8,2.8,2.8,7.4,0,10.2c-0.4,0.4-0.4,1.1,0,1.5
				c0.2,0.2,0.5,0.3,0.7,0.3c0.3,0,0.5-0.1,0.7-0.3C46.6,18.9,46.6,13,43,9.4z"/>
		</g>
	</g>
	<g>
		<g>
			<path class="st0" d="M28.3,7.9c0.4-0.4,0.4-1.1,0-1.5c-0.4-0.4-1.1-0.4-1.5,0c-5.2,5.2-5.2,13.8,0,19c0.2,0.2,0.5,0.3,0.7,0.3
				c0.3,0,0.5-0.1,0.7-0.3c0.4-0.4,0.4-1.1,0-1.5C23.9,19.5,23.9,12.3,28.3,7.9z"/>
		</g>
	</g>
	<g>
		<g>
			<path class="st0" d="M45.9,6.4c-0.4-0.4-1.1-0.4-1.5,0c-0.4,0.4-0.4,1.1,0,1.5c4.4,4.4,4.4,11.7,0,16.1c-0.4,0.4-0.4,1.1,0,1.5
				c0.2,0.2,0.5,0.3,0.7,0.3c0.3,0,0.5-0.1,0.7-0.3C51.1,20.2,51.1,11.7,45.9,6.4z"/>
		</g>
	</g>
</g>
</svg>
