<?xml version="1.0" encoding="utf-8"?>
<!-- Generator: Adobe Illustrator 23.0.1, SVG Export Plug-In . SVG Version: 6.00 Build 0)  -->
<svg version="1.1" id="Capa_1" xmlns="http://www.w3.org/2000/svg" xmlns:xlink="http://www.w3.org/1999/xlink" x="0px" y="0px"
	 viewBox="0 0 481.8 481.8" style="enable-background:new 0 0 481.8 481.8;" xml:space="preserve">
<style type="text/css">
	.st0{fill:#fff;}
</style>
<g>
	<g>
		<g>
			<path class="st0" d="M222,87.3c-0.4,0.1-0.7,0.3-1,0.5c-9.7,7.5-132.8,21.4-168.8,25.3c-0.2,0-0.3-0.1-0.3-0.3c0-6.1-5-11-11-11
				H12.3c-6.1,0-11,5-11,11v117.1c0,6.1,5,11,11,11H41c6.1,0,11-5,11-11v-2.5c0-0.2,0.1-0.3,0.3-0.3h7.1c0.8,0,1.5,0.3,2.1,0.8
				c29.5,27.8,71.2,38.5,74.3,39.3c0.2,0.1,0.3,0.1,0.4,0.1l81.7,9.5c0.2,0,0.3,0.1,0.5,0.1c73.7,21.4,75.9-4.5,75.9-4.5
				c0.1-0.9,0.1-1.8,0.1-2.7c0-32.3-60.7-39.4-67-40.1c-0.3,0-0.7-0.1-1-0.3c-3.9-1.9-28.6-14.4-34.3-25.1c0-0.1,0-0.1,0-0.2
				c1.8-6.3,7.6-10.9,14.3-10.9h21h213.1c9.8,0,17.9,8.1,17.9,17.9v97.5c0,1.7-1.4,3.1-3.1,3.1H194.5c-1.7,0-3.1-1.4-3.1-3.1v-2.4
				v-3.9c0-1.6-1.1-2.9-2.7-3.1l-19.5-2.3c-1.8-0.2-3.4,1.3-3.4,3.1v10.6v42c0,24.3,19.8,44.1,44.1,44.1h229.6c22.5,0,41-18.4,41-41
				V211.3c0-24.3-19.8-44.1-44.1-44.1h-97.9c-0.1,0-0.1,0-0.2-0.1c-21.2-23.4-66.7-64.7-70.3-69.3C253.8,79.6,226.5,86,222,87.3z
				 M455.7,350.6c1.5,0,2.8,1.2,2.8,2.8c0,9.8-8,17.7-17.7,17.7H209.3c-9.8,0-17.7-8-17.7-17.7c0-1.5,1.2-2.8,2.8-2.8H455.7z"/>
		</g>
	</g>
</g>
</svg>
